<?xml version="1.0" standalone="no"?><!DOCTYPE svg PUBLIC "-//W3C//DTD SVG 1.1//EN" "http://www.w3.org/Graphics/SVG/1.1/DTD/svg11.dtd"><svg t="1484277186895" class="icon" style="" viewBox="0 0 1024 1024" version="1.1" xmlns="http://www.w3.org/2000/svg" p-id="5817" xmlns:xlink="http://www.w3.org/1999/xlink" width="100" height="100"><defs><style type="text/css"></style></defs><path d="M539.573497 470.764853l-24.416086-50.128701-24.409946 50.128701-54.587246 8.040117 39.498596 39.016619-9.321296 55.100946 48.820915-26.01756 48.819892 26.01756-9.321296-55.100946 39.499619-39.016619L539.573497 470.764853zM511.999488 31.69384c-265.265526 0-480.303091 215.040634-480.303091 480.30616 0 265.263479 215.037565 480.30616 480.303091 480.30616 265.266549 0 480.302067-215.043704 480.302067-480.30616C992.302579 246.734474 777.266038 31.69384 511.999488 31.69384zM739.509109 760.984724c0 17.627473-18.971074 28.511357-33.886785 19.446911l-159.048389-58.745962c-20.290115-7.489578-42.539862-7.489578-62.828954 0l-159.048389 58.745962c-14.914688 9.064446-33.892925-1.819438-33.892925-19.446911L290.803667 300.688293c0-25.046443 20.039405-54.021358 44.75839-54.021358l359.196849 0c24.712845 0 44.751227 28.974915 44.751227 54.021358L739.510132 760.984724z" p-id="5818" fill="#1ABC9C"></path></svg>