<?xml version="1.0" standalone="no"?><!DOCTYPE svg PUBLIC "-//W3C//DTD SVG 1.1//EN" "http://www.w3.org/Graphics/SVG/1.1/DTD/svg11.dtd"><svg t="1506445062117" class="icon" style="" viewBox="0 0 1024 1024" version="1.1" xmlns="http://www.w3.org/2000/svg" p-id="4674" xmlns:xlink="http://www.w3.org/1999/xlink" width="32" height="32"><defs><style type="text/css">@font-face {
  font-family: "weel-translate";
  font-style: normal;
  font-weight: normal;
  src: url("moz-extension://3f6133e6-5f59-43ec-8a7b-37267ca04603/fonts/weel-translate.ttf") format("truetype"), url("moz-extension://3f6133e6-5f59-43ec-8a7b-37267ca04603/fonts/weel-translate.woff") format("woff");
}
@font-face {
  font-family: "weel-translate";
  font-style: normal;
  font-weight: normal;
  src: url("moz-extension://3f6133e6-5f59-43ec-8a7b-37267ca04603/fonts/weel-translate.ttf") format("truetype"), url("moz-extension://3f6133e6-5f59-43ec-8a7b-37267ca04603/fonts/weel-translate.woff") format("woff");
}
@font-face {
  font-family: "weel-translate";
  font-style: normal;
  font-weight: normal;
  src: url("moz-extension://3f6133e6-5f59-43ec-8a7b-37267ca04603/fonts/weel-translate.ttf") format("truetype"), url("moz-extension://3f6133e6-5f59-43ec-8a7b-37267ca04603/fonts/weel-translate.woff") format("woff");
}
@font-face {
  font-family: "weel-translate";
  font-style: normal;
  font-weight: normal;
  src: url("moz-extension://3f6133e6-5f59-43ec-8a7b-37267ca04603/fonts/weel-translate.ttf") format("truetype"), url("moz-extension://3f6133e6-5f59-43ec-8a7b-37267ca04603/fonts/weel-translate.woff") format("woff");
}
@font-face {
  font-family: "weel-translate";
  font-style: normal;
  font-weight: normal;
  src: url("moz-extension://3f6133e6-5f59-43ec-8a7b-37267ca04603/fonts/weel-translate.ttf") format("truetype"), url("moz-extension://3f6133e6-5f59-43ec-8a7b-37267ca04603/fonts/weel-translate.woff") format("woff");
}
@font-face {
  font-family: "weel-translate";
  font-style: normal;
  font-weight: normal;
  src: url("moz-extension://3f6133e6-5f59-43ec-8a7b-37267ca04603/fonts/weel-translate.ttf") format("truetype"), url("moz-extension://3f6133e6-5f59-43ec-8a7b-37267ca04603/fonts/weel-translate.woff") format("woff");
}
@font-face {
  font-family: "weel-translate";
  font-style: normal;
  font-weight: normal;
  src: url("moz-extension://3f6133e6-5f59-43ec-8a7b-37267ca04603/fonts/weel-translate.ttf") format("truetype"), url("moz-extension://3f6133e6-5f59-43ec-8a7b-37267ca04603/fonts/weel-translate.woff") format("woff");
}
@font-face {
  font-family: "weel-translate";
  font-style: normal;
  font-weight: normal;
  src: url("moz-extension://3f6133e6-5f59-43ec-8a7b-37267ca04603/fonts/weel-translate.ttf") format("truetype"), url("moz-extension://3f6133e6-5f59-43ec-8a7b-37267ca04603/fonts/weel-translate.woff") format("woff");
}
</style></defs><path d="M397.76 620.24l22.32 36.96 22.080-36.96-22.080-36.96-22.32 36.96zM619.040 657.2l22.080-36.96-22.080-36.96-22.080 36.96 22.080 36.96zM489.68 601.76l30.72 52.080 30.48-52.080-30.48-51.84-30.72 51.84z" p-id="4675" fill="#1ABC9C"></path><path d="M512 32c-265.097 0-480 214.903-480 480s214.903 480 480 480c265.097 0 480-214.903 480-480 0-265.097-214.903-480-480-480zM741.44 499.52c-0.377 0.033-0.816 0.051-1.258 0.051-2.608 0-5.067-0.64-7.228-1.772l-40.714 125.801v63.6h-348.72v-63.6l-40.8-125.76c-1.418 1.132-3.237 1.816-5.216 1.816-0.532 0-1.052-0.050-1.556-0.143-13.203 0.008-23.948-10.737-23.948-23.992 0-13.254 10.746-24 24-24 13.254 0 24 10.746 24 24 0.017 0.325 0.026 0.707 0.026 1.090 0 9.261-5.58 17.218-13.561 20.693 52.655 48.056 112.175 60.536 143.855 43.736 55.68-27.84 70.080-122.16 70.080-122.16-18.556-0.001-33.599-15.043-33.599-33.6 0-18.557 15.043-33.6 33.6-33.6 18.557 0 33.6 15.043 33.6 33.6 0 0.084 0 0.169-0.001 0.253-0.136 18.573-15.233 33.588-33.839 33.588-0.084 0-0.17 0-0.254-0.001s12.013 96 67.933 122.4c32.4 16.8 91.92 5.040 144-43.68-8.065-3.312-13.648-11.092-13.68-20.18 0-13.235 10.746-23.98 24-23.98 0 0 0 0 0 0 0.52-0.047 1.125-0.074 1.736-0.074 11.267 0 20.4 9.133 20.4 20.4 0 0.532-0.021 1.061-0.061 1.583 0.005-0.060 0.005-0.050 0.005-0.039 0 12.833-10.072 23.313-22.742 23.967z" p-id="4676" fill="#1ABC9C"></path></svg>